<svg width="96" height="96" viewBox="0 0 96 96" fill="none" xmlns="http://www.w3.org/2000/svg">
<g filter="url(#filter0_d_81_14)">
<path d="M87.8 19H23.8C21.6 19 19.8 20.8 19.8 23V37.5C20.9 37.2 22.2 37 23.4 37C24.2 37 25 37.1 25.8 37.2V25H85.8V63H51.9001L46.2001 69H87.8C90 69 91.8 67.2 91.8 65V23C91.8 20.8 90 19 87.8 19Z" fill="#881420"/>
<path d="M23.4999 58C28.1999 58 31.9999 54.2 31.9999 49.5C31.9999 44.8 28.1999 41 23.4999 41C18.7999 41 14.9999 44.8 14.9999 49.5C14.8999 54.2 18.7999 58 23.4999 58Z" fill="#881420"/>
<path d="M56.2 48.1001C54.9 46.1001 52.2999 45.6001 50.2999 46.8001C49.8999 47.0001 49.7 47.4001 49.5 47.6001L34.9 62.8001C33.5 62.1001 32 61.5001 30.5 61.0001C28.2 60.6001 25.7999 60.1001 23.5 60.1001C21.2 60.1001 18.8 60.5001 16.5 61.2001C13.1 62.1001 10.1 63.8001 7.59995 65.9001C6.99995 66.5001 6.49995 67.4001 6.29995 68.2001L4.19995 77.0001H34.0999V76.9001L42.5999 67.0001L55.7 53.2001C56.9 52.0001 57.2999 49.7001 56.2 48.1001Z" fill="#881420"/>
</g>
<defs>
<filter id="filter0_d_81_14" x="-4" y="0" width="104" height="104" filterUnits="userSpaceOnUse" color-interpolation-filters="sRGB">
<feFlood flood-opacity="0" result="BackgroundImageFix"/>
<feColorMatrix in="SourceAlpha" type="matrix" values="0 0 0 0 0 0 0 0 0 0 0 0 0 0 0 0 0 0 127 0" result="hardAlpha"/>
<feOffset dy="4"/>
<feGaussianBlur stdDeviation="2"/>
<feComposite in2="hardAlpha" operator="out"/>
<feColorMatrix type="matrix" values="0 0 0 0 0 0 0 0 0 0 0 0 0 0 0 0 0 0 0.25 0"/>
<feBlend mode="normal" in2="BackgroundImageFix" result="effect1_dropShadow_81_14"/>
<feBlend mode="normal" in="SourceGraphic" in2="effect1_dropShadow_81_14" result="shape"/>
</filter>
</defs>
</svg>
