<svg width="94" height="94" viewBox="0 0 94 94" fill="none" xmlns="http://www.w3.org/2000/svg">
<g filter="url(#filter0_d_81_4)">
<path fill-rule="evenodd" clip-rule="evenodd" d="M76.375 46.0208H70.5C67.255 46.0208 64.625 47.6717 64.625 50.9167V51.7509C66.1908 53.1507 67.4389 54.8694 68.2851 56.7917H82.25V50.9167C82.25 47.6717 79.62 46.0208 76.375 46.0208ZM29.375 51.7509V50.9167C29.375 47.6717 26.745 46.0208 23.5 46.0208H17.625C14.38 46.0208 11.75 47.6717 11.75 50.9167V56.7917H25.7149C26.5611 54.8694 27.8092 53.1507 29.375 51.7509ZM73.4003 43.0833C74.9584 43.0932 76.4567 42.4837 77.5654 41.3889C78.6742 40.2941 79.3026 38.8037 79.3125 37.2455C79.3224 35.6874 78.7129 34.1891 77.6181 33.0804C76.5233 31.9716 75.0329 31.3432 73.4747 31.3333C72.7032 31.3284 71.9383 31.4756 71.2236 31.7663C70.509 32.057 69.8586 32.4857 69.3096 33.0278C68.7606 33.5699 68.3237 34.2148 68.024 34.9257C67.7242 35.6366 67.5674 36.3996 67.5625 37.1711C67.5576 37.9426 67.7047 38.7076 67.9955 39.4222C68.2862 40.1369 68.7149 40.7873 69.2569 41.3363C69.799 41.8853 70.4439 42.3221 71.1549 42.6219C71.8658 42.9216 72.6288 43.0784 73.4003 43.0833ZM20.5253 43.0833C21.2968 43.0882 22.0617 42.9411 22.7764 42.6504C23.491 42.3596 24.1414 41.931 24.6904 41.3889C25.2394 40.8468 25.6763 40.2019 25.9761 39.491C26.2758 38.7801 26.4326 38.0171 26.4375 37.2455C26.4424 36.474 26.2953 35.7091 26.0045 34.9944C25.7138 34.2798 25.2852 33.6294 24.7431 33.0804C24.201 32.5314 23.5561 32.0945 22.8451 31.7948C22.1342 31.495 21.3712 31.3382 20.5997 31.3333C19.0416 31.3235 17.5433 31.933 16.4346 33.0278C15.3258 34.1226 14.6974 35.613 14.6875 37.1711C14.6776 38.7293 15.2871 40.2275 16.3819 41.3363C17.4767 42.445 18.9671 43.0735 20.5253 43.0833ZM35.25 32.3125C35.25 38.7926 40.5199 44.0625 47 44.0625C53.1531 44.0625 58.2075 39.3057 58.701 33.2799C56.8438 33.192 55.0759 32.457 53.7038 31.2022C52.3317 29.9475 51.442 28.2521 51.1889 26.4101C50.1079 30.3875 46.481 32.7237 42.1629 32.7237C39.5035 32.7237 37.2299 32.1735 35.4165 30.4168C35.3103 31.0432 35.2546 31.6772 35.25 32.3125ZM32.3125 32.3125C32.3125 24.2148 38.9003 17.625 47 17.625C55.0997 17.625 61.6875 24.2148 61.6875 32.3125C61.6875 40.4102 55.0997 47 47 47C38.9003 47 32.3125 40.4102 32.3125 32.3125ZM57.056 51.1321C55.458 55.6323 53.1609 59.9289 51.1634 63.2444L48.7233 57.1461L49.9963 55.8713C50.2143 55.6537 50.3584 55.3729 50.4079 55.0689C50.4575 54.7648 50.4101 54.4529 50.2724 54.1773L48.643 50.9167H45.357L43.7276 54.1773C43.5899 54.4529 43.5425 54.7648 43.5921 55.0689C43.6416 55.3729 43.7857 55.6537 44.0037 55.8713L45.2767 57.1461L42.8425 63.2346C40.845 59.9172 38.5498 55.6206 36.9479 51.1321C36.212 51.2778 35.4919 51.4943 34.7976 51.7783C37.692 61.2018 44.3406 70.5117 47.002 73.9995C49.6653 70.5176 56.3236 61.2155 59.2024 51.7783C58.5091 51.4951 57.7904 51.2788 57.056 51.1321ZM27.4167 62.6667V76.375H45.12C42.7798 73.3885 35.5457 63.6263 32.195 53.2628C29.3123 55.4032 27.4167 58.799 27.4167 62.6667ZM66.5833 62.6667V76.375H48.882C51.232 73.3885 58.468 63.6497 61.807 53.2647C64.6896 55.4032 66.5833 58.799 66.5833 62.6667Z" fill="#4ADCF2"/>
</g>
<defs>
<filter id="filter0_d_81_4" x="-4" y="0" width="102" height="102" filterUnits="userSpaceOnUse" color-interpolation-filters="sRGB">
<feFlood flood-opacity="0" result="BackgroundImageFix"/>
<feColorMatrix in="SourceAlpha" type="matrix" values="0 0 0 0 0 0 0 0 0 0 0 0 0 0 0 0 0 0 127 0" result="hardAlpha"/>
<feOffset dy="4"/>
<feGaussianBlur stdDeviation="2"/>
<feComposite in2="hardAlpha" operator="out"/>
<feColorMatrix type="matrix" values="0 0 0 0 0 0 0 0 0 0 0 0 0 0 0 0 0 0 0.25 0"/>
<feBlend mode="normal" in2="BackgroundImageFix" result="effect1_dropShadow_81_4"/>
<feBlend mode="normal" in="SourceGraphic" in2="effect1_dropShadow_81_4" result="shape"/>
</filter>
</defs>
</svg>
