<svg width="167" height="167" viewBox="0 0 167 167" fill="none" xmlns="http://www.w3.org/2000/svg">
<path d="M83.5 4C127.407 4 163 39.5934 163 83.5C163 127.407 127.407 163 83.5 163C39.5934 163 4 127.407 4 83.5C4 39.5934 39.5934 4 83.5 4Z" fill="#0099FF" stroke="white" stroke-width="8"/>
<path d="M74.726 100.738L77.792 83.2393C74.6444 80.8093 73.405 76.6343 74.7096 72.8833C75.998 69.1323 79.5533 66.6045 83.5326 66.6208V47.1973H59.8525C57.4225 47.1973 55.0904 48.1595 53.3617 49.8882C51.6493 51.6006 50.6708 53.949 50.6708 56.379V101.358C50.6708 102.206 50.8502 103.038 51.2253 103.804C53.2149 107.816 61.043 120.716 83.5 130.632V101.456C80.5644 101.472 77.6289 101.228 74.726 100.738Z" fill="white"/>
<path d="M107.131 47.1318H83.5V66.5554C87.463 66.5391 90.9856 69.0343 92.3066 72.7526C93.6113 76.4873 92.4208 80.646 89.3222 83.0923L92.3882 100.673C89.4526 101.179 86.4845 101.439 83.5163 101.439V130.567C105.941 120.7 113.801 107.751 115.791 103.739C116.166 102.972 116.346 102.141 116.346 101.293V56.3462C116.362 53.8999 115.4 51.5515 113.671 49.8228C111.942 48.094 109.577 47.1318 107.131 47.1318Z" fill="white"/>
</svg>
