<svg width="105" height="105" viewBox="0 0 105 105" fill="none" xmlns="http://www.w3.org/2000/svg">
<g filter="url(#filter0_d_81_21)">
<path fill-rule="evenodd" clip-rule="evenodd" d="M72.6666 28.8969L72.4697 28.7438C72.0912 25.8694 70.7153 22.8747 68.5672 20.3503C65.0781 16.2488 59.3906 13.125 51.7781 13.125C44.275 13.125 38.9878 16.5463 35.8684 20.7878C34.4134 22.75 33.3736 24.9881 32.8125 27.3656C32.7103 27.8108 32.6286 28.2605 32.5675 28.7131L32.3312 28.8947C29.8725 30.8 28.0678 33.11 28.4966 35.7591C28.9078 38.3184 31.2222 39.8759 33.3747 40.8275C33.9216 41.0703 34.5122 41.2978 35.14 41.51C34.8237 43.9759 35.0365 46.4809 35.7641 48.8582C36.4917 51.2354 37.7176 53.4304 39.3599 55.2968C41.0022 57.1632 43.0234 58.6583 45.2887 59.6824C47.5541 60.7066 50.0117 61.2363 52.4978 61.2363C54.9839 61.2363 57.4415 60.7066 59.7069 59.6824C61.9722 58.6583 63.9934 57.1632 65.6357 55.2968C67.2781 53.4304 68.5039 51.2354 69.2315 48.8582C69.9591 46.4809 70.1719 43.9759 69.8556 41.51C70.4834 41.2978 71.0741 41.0725 71.6209 40.8275C73.7734 39.8759 76.0856 38.3184 76.4991 35.7591C76.9278 33.11 75.1231 30.8 72.6644 28.8947L72.6666 28.8969ZM37.0672 32.095C36.7828 31.2769 36.7084 29.9622 37.0781 28.3369C37.4412 26.7509 38.1937 25.0119 39.375 23.4019V29.5312C39.375 30.1114 39.6055 30.6678 40.0157 31.078C40.4259 31.4883 40.9823 31.7188 41.5625 31.7188C42.1427 31.7188 42.6991 31.4883 43.1093 31.078C43.5195 30.6678 43.75 30.1114 43.75 29.5312V19.4906C45.5503 18.4669 47.7269 17.7516 50.3125 17.5547V25.1562C50.3125 25.7364 50.543 26.2928 50.9532 26.703C51.3634 27.1133 51.9198 27.3438 52.5 27.3438C53.0801 27.3438 53.6366 27.1133 54.0468 26.703C54.457 26.2928 54.6875 25.7364 54.6875 25.1562V17.6903C56.9974 17.9815 59.2274 18.7248 61.25 19.8778V29.5312C61.25 30.1114 61.4805 30.6678 61.8907 31.078C62.3009 31.4883 62.8573 31.7188 63.4375 31.7188C64.0177 31.7188 64.5741 31.4883 64.9843 31.078C65.3945 30.6678 65.625 30.1114 65.625 29.5312V23.6644C68.0422 26.7619 68.6087 30.1044 67.9284 32.1103C67.7599 32.6068 67.7753 33.1473 67.9718 33.6333C68.1683 34.1194 68.5329 34.5187 68.9991 34.7586C69.4653 34.9985 70.0021 35.0629 70.5118 34.9402C71.0216 34.8175 71.4703 34.5158 71.7762 34.09C72.2072 34.6916 72.1919 35.0109 72.1831 35.0612C72.1547 35.2362 71.82 35.9581 69.8534 36.8288C69.0003 37.205 67.9853 37.5441 66.8456 37.8437L66.7931 37.8569C65.5572 38.1762 64.1812 38.4475 62.709 38.6706C59.9787 39.0643 57.2268 39.2908 54.4687 39.3488C52.5728 39.3961 50.6757 39.3757 48.7812 39.2875C46.6022 39.19 44.4294 38.9826 42.2712 38.6663C40.9033 38.4676 39.5466 38.1974 38.2069 37.8569L38.1544 37.8437C37.1266 37.5853 36.1208 37.2459 35.1466 36.8288C33.18 35.9581 32.8453 35.2362 32.8169 35.0612C32.8081 35.0109 32.7928 34.6916 33.2237 34.09C33.5302 34.5177 33.9806 34.8206 34.4922 34.9432C35.0039 35.0658 35.5426 34.9998 36.0096 34.7574C36.4766 34.515 36.8406 34.1124 37.0349 33.6234C37.2291 33.1344 37.2406 32.5918 37.0672 32.095ZM39.4231 42.6147C40.1494 42.7569 40.9019 42.8859 41.6719 43.0019C44.0081 43.3519 46.5237 43.575 49.0831 43.68C51.3644 43.7737 53.6487 43.7737 55.93 43.68C58.4762 43.575 60.9831 43.3519 63.3084 43.0019C64.0676 42.8913 64.824 42.7622 65.5769 42.6147C65.7324 44.4263 65.5099 46.2504 64.9234 47.9715C64.3368 49.6925 63.3991 51.2729 62.1696 52.6125C60.9402 53.9521 59.4458 55.0216 57.7812 55.7532C56.1167 56.4848 54.3182 56.8626 52.5 56.8626C50.6817 56.8626 48.8833 56.4848 47.2188 55.7532C45.5542 55.0216 44.0598 53.9521 42.8303 52.6125C41.6009 51.2729 40.6632 49.6925 40.0766 47.9715C39.4901 46.2504 39.2676 44.4263 39.4231 42.6147Z" fill="#14E844"/>
<path fill-rule="evenodd" clip-rule="evenodd" d="M63.4375 62.3218C64.8769 62.5733 66.3425 62.8665 67.8125 63.2012C79.7191 65.9202 91.875 71.3562 91.875 78.7499V91.8749H13.125V78.7499C13.125 71.3562 25.2809 65.9202 37.1875 63.2012C38.6381 62.8706 40.0969 62.5774 41.5625 62.3218V72.1874H63.4375V62.3218ZM32.8125 68.8843C34.2431 68.4468 35.7109 68.0508 37.1875 67.6943V76.5624H67.8125V67.6965C70.0284 68.2267 72.2183 68.8603 74.375 69.5952V87.4999H78.75V71.3058C79.3844 71.588 79.9969 71.879 80.5831 72.1787C83.0703 73.443 84.9144 74.7468 86.0825 75.9937C87.2309 77.2187 87.5 78.1221 87.5 78.7499V87.4999H17.5V78.7499C17.5 78.1221 17.7691 77.2187 18.9175 75.9937C20.0856 74.7468 21.9297 73.443 24.4169 72.1787C25.6616 71.5443 27.0112 70.9493 28.4375 70.3958V87.4999H32.8125V68.8843Z" fill="#14E844"/>
</g>
<defs>
<filter id="filter0_d_81_21" x="-4" y="0" width="113" height="113" filterUnits="userSpaceOnUse" color-interpolation-filters="sRGB">
<feFlood flood-opacity="0" result="BackgroundImageFix"/>
<feColorMatrix in="SourceAlpha" type="matrix" values="0 0 0 0 0 0 0 0 0 0 0 0 0 0 0 0 0 0 127 0" result="hardAlpha"/>
<feOffset dy="4"/>
<feGaussianBlur stdDeviation="2"/>
<feComposite in2="hardAlpha" operator="out"/>
<feColorMatrix type="matrix" values="0 0 0 0 0 0 0 0 0 0 0 0 0 0 0 0 0 0 0.25 0"/>
<feBlend mode="normal" in2="BackgroundImageFix" result="effect1_dropShadow_81_21"/>
<feBlend mode="normal" in="SourceGraphic" in2="effect1_dropShadow_81_21" result="shape"/>
</filter>
</defs>
</svg>
