<svg width="99" height="92" viewBox="0 0 99 92" fill="none" xmlns="http://www.w3.org/2000/svg">
<g filter="url(#filter0_d_81_27)">
<path d="M91.2083 7.5835H7.79167C6.78605 7.5835 5.82163 7.98297 5.11055 8.69405C4.39948 9.40512 4 10.3696 4 11.3752L4 79.6252C4 80.6308 4.39948 81.5952 5.11055 82.3063C5.82163 83.0174 6.78605 83.4168 7.79167 83.4168H91.2083C92.214 83.4168 93.1784 83.0174 93.8895 82.3063C94.6005 81.5952 95 80.6308 95 79.6252V11.3752C95 10.3696 94.6005 9.40512 93.8895 8.69405C93.1784 7.98297 92.214 7.5835 91.2083 7.5835ZM87.4167 75.8335H79.8333V72.0418H60.875V75.8335H11.5833V15.1668H87.4167V75.8335ZM43.0163 36.8172C43.0163 35.0976 43.6994 33.4485 44.9153 32.2325C46.1312 31.0166 47.7804 30.3335 49.5 30.3335C53.1021 30.3335 55.9837 33.2531 55.9837 36.8172C55.9837 40.4193 53.1021 43.3389 49.5 43.3389C45.8979 43.3389 43.0163 40.4193 43.0163 36.8172ZM25.6504 42.8081C25.6504 40.116 27.8496 37.9168 30.5417 37.9168C31.8389 37.9168 33.083 38.4322 34.0003 39.3494C34.9176 40.2667 35.4329 41.5108 35.4329 42.8081C35.4329 45.5002 33.2338 47.6614 30.5417 47.6614C27.8496 47.6614 25.6504 45.5002 25.6504 42.8081ZM63.5671 42.8081C63.5671 41.5108 64.0824 40.2667 64.9997 39.3494C65.917 38.4322 67.1611 37.9168 68.4583 37.9168C69.7556 37.9168 70.9997 38.4322 71.917 39.3494C72.8343 40.2667 73.3496 41.5108 73.3496 42.8081C73.3496 45.5002 71.1504 47.6614 68.4583 47.6614C65.7663 47.6614 63.5671 45.5002 63.5671 42.8081ZM79.8333 57.406V60.6668H19.1667V57.406C19.1667 53.8418 25.0438 50.9222 30.5417 50.9222C32.6271 50.9222 34.7504 51.3393 36.6083 52.0597C39.4521 49.4435 44.5708 47.6614 49.5 47.6614C54.4292 47.6614 59.5479 49.4435 62.3917 52.0597C64.2496 51.3393 66.3729 50.9222 68.4583 50.9222C73.9563 50.9222 79.8333 53.8418 79.8333 57.406Z" fill="#6B8AAF"/>
</g>
<defs>
<filter id="filter0_d_81_27" x="0" y="0" width="99" height="99" filterUnits="userSpaceOnUse" color-interpolation-filters="sRGB">
<feFlood flood-opacity="0" result="BackgroundImageFix"/>
<feColorMatrix in="SourceAlpha" type="matrix" values="0 0 0 0 0 0 0 0 0 0 0 0 0 0 0 0 0 0 127 0" result="hardAlpha"/>
<feOffset dy="4"/>
<feGaussianBlur stdDeviation="2"/>
<feComposite in2="hardAlpha" operator="out"/>
<feColorMatrix type="matrix" values="0 0 0 0 0 0 0 0 0 0 0 0 0 0 0 0 0 0 0.25 0"/>
<feBlend mode="normal" in2="BackgroundImageFix" result="effect1_dropShadow_81_27"/>
<feBlend mode="normal" in="SourceGraphic" in2="effect1_dropShadow_81_27" result="shape"/>
</filter>
</defs>
</svg>
