<?xml version="1.0" standalone="no"?><svg xmlns="http://www.w3.org/2000/svg" viewBox="0 0 1440 320"><path fill="#0099ff" fill-opacity="1" d="M0,320L21.8,277.3C43.6,235,87,149,131,133.3C174.5,117,218,171,262,176C305.5,181,349,139,393,122.7C436.4,107,480,117,524,128C567.3,139,611,149,655,165.3C698.2,181,742,203,785,224C829.1,245,873,267,916,272C960,277,1004,267,1047,218.7C1090.9,171,1135,85,1178,85.3C1221.8,85,1265,171,1309,202.7C1352.7,235,1396,213,1418,202.7L1440,192L1440,0L1418.2,0C1396.4,0,1353,0,1309,0C1265.5,0,1222,0,1178,0C1134.5,0,1091,0,1047,0C1003.6,0,960,0,916,0C872.7,0,829,0,785,0C741.8,0,698,0,655,0C610.9,0,567,0,524,0C480,0,436,0,393,0C349.1,0,305,0,262,0C218.2,0,175,0,131,0C87.3,0,44,0,22,0L0,0Z"></path></svg>